<svg width="256" height="256" viewBox="0 0 256 256" fill="none" xmlns="http://www.w3.org/2000/svg">
<path d="M102.881 95.1209H123.583H124.698M102.881 95.1209C102.881 95.1209 103.097 69.6706 108.331 63.3083C118.02 53.2882 145.099 55.1928 150.813 66.952C152.93 80.0721 154.573 103.244 150.813 115.37C142.759 137.183 105.22 116.1 87.6432 127.506C80.9001 131.484 77.1626 140.275 79.2497 158.48C49.5655 142.897 57.8072 107.85 79.2497 97.4044C87.5849 93.3438 102.881 95.1209 102.881 95.1209Z" stroke="black" stroke-width="9" stroke-linecap="round"/>
<path fill-rule="evenodd" clip-rule="evenodd" d="M128.265 82.7393C132.084 82.7393 135.18 79.6433 135.18 75.8243C135.18 72.0053 132.084 68.9093 128.265 68.9093C124.446 68.9093 121.35 72.0053 121.35 75.8243C121.35 79.6433 124.446 82.7393 128.265 82.7393ZM128.265 79.1037C130.076 79.1037 131.545 77.6355 131.545 75.8243C131.545 74.0131 130.076 72.5449 128.265 72.5449C126.454 72.5449 124.986 74.0131 124.986 75.8243C124.986 77.6355 126.454 79.1037 128.265 79.1037Z" fill="black"/>
<path d="M178.103 65.4809V83.0746M168.852 74.7328H186.597" stroke="black" stroke-width="9" stroke-linecap="round"/>
<path d="M178.103 171.823V189.417M168.852 181.075H186.597" stroke="black" stroke-width="9" stroke-linecap="round"/>
<path d="M167.619 94.6602C202.974 105.67 202.938 137.399 184.683 152.488C177.036 158.809 164.897 158.88 152.901 158.625M152.901 158.625C154.167 188.498 150.358 198.889 130.07 198.438C113.285 197.744 100.909 203.155 104.409 158.625C106.003 150.345 108.66 147.466 117.051 145.983M152.901 158.625H132.605" stroke="black" stroke-width="9" stroke-linecap="round"/>
<circle cx="128" cy="178.726" r="6.90305" fill="black"/>
</svg>
