<svg width="256" height="256" viewBox="0 0 256 256" fill="none" xmlns="http://www.w3.org/2000/svg">
<rect x="6.69897" y="6.69891" width="242.602" height="242.602" rx="30.5" stroke="black" stroke-width="7"/>
<path d="M89 9.5L89 246.5" stroke="black" stroke-width="6" stroke-linecap="round"/>
<path d="M170.5 9.5L170.5 246.5" stroke="black" stroke-width="6" stroke-linecap="round"/>
<path d="M9.50006 167L246.5 167" stroke="black" stroke-width="6" stroke-linecap="round"/>
<path d="M9.50006 85.5L246.5 85.5" stroke="black" stroke-width="6" stroke-linecap="round"/>
<path d="M114.996 115.876C115.295 111.951 116.81 108.879 119.54 106.66C122.271 104.441 125.812 103.332 130.164 103.332C133.066 103.332 135.562 103.865 137.652 104.932C139.786 105.956 141.386 107.364 142.452 109.156C143.562 110.948 144.116 112.975 144.116 115.236C144.116 117.881 143.348 120.164 141.812 122.084C140.319 124.004 138.356 125.241 135.924 125.796V126.116C138.698 126.799 140.895 128.143 142.516 130.148C144.138 132.153 144.948 134.777 144.948 138.02C144.948 140.452 144.394 142.649 143.284 144.612C142.175 146.532 140.511 148.047 138.292 149.156C136.074 150.265 133.407 150.82 130.292 150.82C125.77 150.82 122.058 149.647 119.156 147.3C116.255 144.911 114.634 141.54 114.292 137.188H119.924C120.223 139.748 121.268 141.839 123.06 143.46C124.852 145.081 127.242 145.892 130.228 145.892C133.215 145.892 135.476 145.124 137.012 143.588C138.591 142.009 139.38 139.983 139.38 137.508C139.38 134.308 138.314 132.004 136.18 130.596C134.047 129.188 130.826 128.484 126.516 128.484H125.044V123.62H126.58C130.506 123.577 133.471 122.937 135.476 121.7C137.482 120.42 138.484 118.457 138.484 115.812C138.484 113.551 137.738 111.737 136.244 110.372C134.794 109.007 132.703 108.324 129.972 108.324C127.327 108.324 125.194 109.007 123.572 110.372C121.951 111.737 120.991 113.572 120.692 115.876H114.996Z" fill="black"/>
<path d="M223.378 27.284H200.914V41.876C201.896 40.5107 203.346 39.4013 205.266 38.548C207.186 37.652 209.256 37.204 211.474 37.204C215.016 37.204 217.896 37.9507 220.114 39.444C222.333 40.8947 223.912 42.7933 224.85 45.14C225.832 47.444 226.322 49.8973 226.322 52.5C226.322 55.572 225.746 58.324 224.594 60.756C223.442 63.188 221.672 65.108 219.282 66.516C216.936 67.924 214.013 68.628 210.514 68.628C206.034 68.628 202.408 67.476 199.634 65.172C196.861 62.868 195.176 59.796 194.578 55.956H200.274C200.829 58.388 202.002 60.2867 203.794 61.652C205.586 63.0173 207.848 63.7 210.578 63.7C213.949 63.7 216.488 62.6973 218.194 60.692C219.901 58.644 220.754 55.956 220.754 52.628C220.754 49.3 219.901 46.74 218.194 44.948C216.488 43.1133 213.97 42.196 210.642 42.196C208.381 42.196 206.397 42.7507 204.69 43.86C203.026 44.9267 201.81 46.3987 201.042 48.276H195.538V22.164H223.378V27.284Z" fill="#9C71FF"/>
<path d="M224.979 187.272L207.187 229H201.299L219.347 187.848H194.643V182.856H224.979V187.272Z" fill="#9C71FF"/>
<path d="M33.8578 63.828C39.2765 59.476 43.5218 55.9133 46.5938 53.14C49.6658 50.324 52.2471 47.4013 54.3378 44.372C56.4711 41.3 57.5378 38.292 57.5378 35.348C57.5378 32.5747 56.8551 30.3987 55.4898 28.82C54.1671 27.1987 52.0125 26.388 49.0258 26.388C46.1245 26.388 43.8631 27.3053 42.2418 29.14C40.6631 30.932 39.8098 33.3427 39.6818 36.372H34.0498C34.2205 31.5933 35.6711 27.9027 38.4018 25.3C41.1325 22.6973 44.6525 21.396 48.9618 21.396C53.3565 21.396 56.8338 22.612 59.3938 25.044C61.9965 27.476 63.2978 30.8253 63.2978 35.092C63.2978 38.6333 62.2311 42.0893 60.0978 45.46C58.0071 48.788 55.6178 51.732 52.9298 54.292C50.2418 56.8093 46.8071 59.7533 42.6258 63.124H64.6418V67.988H33.8578V63.828Z" fill="#9C71FF"/>
<path d="M139.448 33.236C138.509 28.5 135.586 26.132 130.68 26.132C126.882 26.132 124.045 27.604 122.168 30.548C120.29 33.4493 119.373 38.2493 119.416 44.948C120.397 42.7293 122.018 41.0013 124.28 39.764C126.584 38.484 129.144 37.844 131.96 37.844C136.354 37.844 139.853 39.2093 142.456 41.94C145.101 44.6707 146.424 48.4467 146.424 53.268C146.424 56.1693 145.848 58.772 144.696 61.076C143.586 63.38 141.88 65.2147 139.576 66.58C137.314 67.9453 134.562 68.628 131.32 68.628C126.925 68.628 123.49 67.6467 121.016 65.684C118.541 63.7213 116.813 61.012 115.832 57.556C114.85 54.1 114.36 49.8333 114.36 44.756C114.36 29.0973 119.821 21.268 130.744 21.268C134.925 21.268 138.21 22.3987 140.6 24.66C142.989 26.9213 144.397 29.78 144.824 33.236H139.448ZM130.744 42.772C128.909 42.772 127.181 43.156 125.56 43.924C123.938 44.6493 122.616 45.78 121.592 47.316C120.61 48.8093 120.12 50.644 120.12 52.82C120.12 56.0627 121.058 58.708 122.936 60.756C124.813 62.7613 127.501 63.764 131 63.764C133.986 63.764 136.354 62.8467 138.104 61.012C139.896 59.1347 140.792 56.6173 140.792 53.46C140.792 50.132 139.938 47.5293 138.232 45.652C136.525 43.732 134.029 42.772 130.744 42.772Z" fill="black"/>
</svg>
